<svg id="Capa_1" enable-background="new 0 0 512 512" height="512" viewBox="0 0 512 512" width="512" xmlns="http://www.w3.org/2000/svg"><g><path d="m73.968 331h120.947c8.281 0 14.993-6.716 14.993-15s-6.713-15-14.993-15h-120.947c-8.281 0-14.993 6.716-14.993 15s6.712 15 14.993 15z"/><path d="m73.968 271h120.947c8.281 0 14.993-6.716 14.993-15s-6.713-15-14.993-15h-120.947c-8.281 0-14.993 6.716-14.993 15s6.712 15 14.993 15z"/><path d="m73.968 391h120.947c8.281 0 14.993-6.716 14.993-15s-6.713-15-14.993-15h-120.947c-8.281 0-14.993 6.716-14.993 15s6.712 15 14.993 15z"/><path d="m223.903 421h-149.935c-8.281 0-14.993 6.716-14.993 15s6.713 15 14.993 15h149.935c8.281 0 14.993-6.716 14.993-15s-6.713-15-14.993-15z"/><path d="m504.465 339.245-26.732-15.34c.199-4.108.142-7.973-.121-11.74l26.854-15.41c7.208-4.138 9.679-13.36 5.503-20.548l-30.487-52.486c-4.143-7.135-13.269-9.578-20.424-5.476l-27.723 15.91c-3.076-1.98-6.252-3.791-9.517-5.425v-31.73c0-8.284-6.713-15-14.993-15h-16.993v-77c0-3.847-1.546-7.825-4.447-10.662l-90.911-90c-2.818-2.789-6.617-4.338-10.597-4.338h-268.884c-8.28 0-14.993 6.716-14.993 15v482c0 8.284 6.713 15 14.993 15h359.844c8.281 0 14.993-6.716 14.993-15v-43h16.993c8.281 0 14.993-6.716 14.993-15v-29.728c3.85-1.925 7.57-4.092 11.147-6.493l26.094 14.976c7.156 4.105 16.28 1.659 20.424-5.476l30.487-52.486c4.177-7.188 1.706-16.41-5.503-20.548zm-205.545-288.299 39.45 39.054h-39.45zm-29.987-20.946v75c0 8.284 6.713 15 14.993 15h75.917v62c-10.752 0-117.387 0-135.941 0v-30.78l4.4 4.395c5.855 5.848 15.349 5.851 21.204-.018 5.851-5.862 5.843-15.36-.018-21.213l-25.587-25.555v-10.609l4.4 4.395c5.855 5.848 15.349 5.851 21.204-.018 5.851-5.862 5.843-15.36-.018-21.213l-29.488-29.452c-5.757-6.346-15.673-6.612-21.743-.539l-29.963 29.975c-5.856 5.857-5.856 15.354 0 21.213 5.854 5.858 15.348 5.858 21.204 0l4.417-4.419v10.575l-25.621 25.631c-5.856 5.857-5.856 15.354 0 21.213 5.854 5.858 15.348 5.858 21.204 0l4.417-4.419v30.838h-74.967v-30.78l4.4 4.395c5.855 5.848 15.349 5.851 21.204-.018 5.851-5.862 5.843-15.36-.018-21.213l-25.587-25.555v-10.609l4.4 4.395c5.855 5.848 15.349 5.851 21.204-.018 5.851-5.862 5.843-15.36-.018-21.213l-29.488-29.452c-5.77-6.359-15.684-6.601-21.743-.539l-29.96 29.975c-5.856 5.857-5.856 15.354 0 21.213 5.854 5.858 15.348 5.858 21.204 0l4.417-4.419v10.575l-25.621 25.631c-5.856 5.857-5.856 15.354 0 21.213 5.854 5.858 15.348 5.858 21.204 0l4.417-4.419v30.838h-58.975v-152zm90.911 452h-329.857v-270h300.869v16.73c-3.265 1.634-6.442 3.444-9.517 5.425l-27.723-15.91c-7.156-4.105-16.28-1.659-20.424 5.476l-30.487 52.486c-4.177 7.188-1.705 16.41 5.502 20.548l26.854 15.41c-.263 3.766-.32 7.631-.121 11.74l-26.732 15.34c-7.209 4.138-9.68 13.359-5.503 20.548l30.487 52.486c4.142 7.134 13.268 9.578 20.424 5.476l26.094-14.976c3.577 2.401 7.298 4.568 11.147 6.492v29.729c0 8.284 6.713 15 14.993 15h13.994zm86.923-175.292c1.331 7.534 1.488 15.223.273 23.091-.947 6.132 1.978 12.214 7.357 15.301l22.069 12.663-15.42 26.547-21.701-12.453c-5.443-3.122-12.251-2.525-17.065 1.493-6.208 5.181-13.182 9.245-20.727 12.079-5.849 2.197-9.723 7.793-9.723 14.043v24.528h-30.987v-24.529c0-6.251-3.875-11.847-9.724-14.043-7.545-2.833-14.517-6.896-20.726-12.078-4.816-4.019-11.623-4.615-17.065-1.493l-21.701 12.453-15.42-26.547 22.069-12.663c5.379-3.087 8.303-9.169 7.357-15.301-1.15-7.449-1.132-15.133.273-23.091 1.099-6.227-1.822-12.474-7.304-15.62l-22.395-12.851 15.42-26.547 23.143 13.281c5.339 3.063 12.006 2.553 16.816-1.29 5.918-4.728 12.49-8.465 19.532-11.108 5.85-2.196 9.725-7.793 9.725-14.044v-26.529h30.987v26.528c0 6.251 3.874 11.847 9.724 14.043 7.043 2.646 13.614 6.383 19.533 11.11 4.809 3.843 11.478 4.354 16.816 1.29l23.143-13.281 15.42 26.547-22.395 12.851c-5.482 3.146-8.403 9.393-7.304 15.62z"/><path d="m375.837 274c-24.803 0-44.98 20.187-44.98 45s20.178 45 44.98 45c24.803 0 44.98-20.187 44.98-45s-20.177-45-44.98-45zm0 60c-8.268 0-14.993-6.729-14.993-15s6.726-15 14.993-15c8.268 0 14.993 6.729 14.993 15s-6.725 15-14.993 15z"/></g></svg>