<svg id="Capa_1" enable-background="new 0 0 512 512" height="512" viewBox="0 0 512 512" width="512" xmlns="http://www.w3.org/2000/svg"><g><path d="m85.244 151.162-4.419 4.419c-5.858 5.858-15.356 5.858-21.213 0-5.858-5.858-5.858-15.355 0-21.213l25.632-25.631v-10.575l-4.419 4.419c-5.858 5.858-15.356 5.858-21.213 0-5.858-5.858-5.858-15.355 0-21.213l29.976-29.975c6.026-6.026 15.948-5.856 21.753.539l29.501 29.452c5.863 5.853 5.871 15.351.018 21.213-5.846 5.858-15.345 5.876-21.213.018l-4.402-4.395v10.609l25.598 25.555c5.863 5.853 5.871 15.351.018 21.213-5.846 5.858-15.345 5.876-21.213.018l-4.402-4.395v30.78h75v-30.838l-4.419 4.419c-5.857 5.858-15.355 5.858-21.213 0s-5.858-15.355 0-21.213l25.632-25.631v-10.575l-4.419 4.419c-5.857 5.858-15.355 5.858-21.213 0s-5.858-15.355 0-21.213l29.976-29.975c6.083-6.083 16.002-5.796 21.753.539l29.501 29.452c5.863 5.853 5.871 15.351.018 21.213-5.846 5.858-15.345 5.876-21.213.018l-4.402-4.395v10.609l25.598 25.555c5.863 5.853 5.871 15.351.018 21.213-5.846 5.858-15.345 5.876-21.213.018l-4.402-4.395v30.78h181v-62h-105.95c-8.284 0-15-6.716-15-15v-105h-255.054c-8.284 0-15 6.716-15 15v167h75z"/><path d="m310.294 8.787v81.213h82.115z"/><path d="m327.001 439v-1.553c-.795.339-9.964 6.808-23.83 6.808-16.032 0-30.97-8.621-38.984-22.5l-15.304-26.508c-6.01-10.407-7.607-22.535-4.496-34.146 5.434-20.282 21.7-27.576 22.311-28.101-.59-.507-16.897-7.894-22.311-28.101-3.111-11.611-1.514-23.739 4.497-34.148l15.302-26.504c8.016-13.881 22.953-22.502 38.985-22.502 13.618 0 23.254 6.562 23.83 6.808.073-.947-.516-7.822 2.58-16.553h-319.337v285c0 8.284 6.716 15 15 15h361c8.284 0 15-6.716 15-15v-13h-29.243c-24.814 0-45-20.187-45-45zm-241.757-198h106c8.284 0 15 6.716 15 15s-6.716 15-15 15h-106c-8.284 0-15-6.716-15-15s6.716-15 15-15zm0 60h106c8.284 0 15 6.716 15 15s-6.716 15-15 15h-106c-8.284 0-15-6.716-15-15s6.716-15 15-15zm0 60h106c8.284 0 15 6.716 15 15s-6.716 15-15 15h-106c-8.284 0-15-6.716-15-15s6.716-15 15-15zm135 90h-135c-8.284 0-15-6.716-15-15s6.716-15 15-15h135c8.284 0 15 6.716 15 15s-6.716 15-15 15z"/><circle cx="387.303" cy="334" r="15"/><path d="m494.253 359.757-21.944-12.669c1.429-9.32 1.315-18.645-.325-27.988l22.269-12.857c7.175-4.142 9.633-13.316 5.49-20.49l-15.303-26.506c-4.142-7.174-13.316-9.632-20.49-5.49l-22.868 13.203c-7.012-5.636-14.918-10.198-23.476-13.431v-26.529c0-8.284-6.716-15-15-15h-30.606c-8.284 0-15 6.716-15 15v26.529c-8.558 3.233-16.464 7.795-23.476 13.431l-22.868-13.203c-7.175-4.142-16.348-1.684-20.49 5.49l-15.303 26.505c-4.142 7.175-1.684 16.348 5.49 20.49l22.269 12.857c-1.636 9.321-1.757 18.649-.325 27.987l-21.944 12.669c-7.174 4.142-9.633 13.316-5.49 20.49l15.303 26.505c4.142 7.175 13.316 9.633 20.49 5.49l21.434-12.375c7.36 6.18 15.765 11.148 24.911 14.603v24.532c0 8.284 6.716 15 15 15h30.606c8.284 0 15-6.716 15-15v-24.529c9.146-3.455 17.55-8.423 24.911-14.603l21.434 12.375c7.174 4.142 16.348 1.684 20.49-5.49l15.303-26.506c4.141-7.174 1.683-16.348-5.492-20.49zm-106.95 19.243c-24.813 0-45-20.187-45-45s20.187-45 45-45 45 20.187 45 45-20.186 45-45 45z"/></g></svg>